# xmcd
#
# Track frame offsets:
#	150
#	13537
#	24338
#	41517
#	54419
#	72897
#	87544
#	102205
#	118942
#	130282
#	142074
#	160138
#	176274
#	192664
#	205701
#	215750
#	229852
#
# Disc length: 3221 seconds
#
# Revision: 0
# Processed by: cddbd v1.5.2PL0 Copyright (c) Steve Scherf et al.
# Submitted via: EasyCDDAExtractor 12.1.0.1
#
DISCID=f30c9311
DTITLE=Various Artist - Tv속 우리가 만난 음악
DYEAR=1900
DGENRE=pop
TTITLE0=Lisa Ono - Cachito
TTITLE1=Edith Piaf - Non, Je Ne Regrette Rien
TTITLE2=Smooth Ace - My Favorite Things
TTITLE3=Natalie Cole - This Will Be (An Everlasting Love)
TTITLE4=Angela Mccluskey - Love Is Stronger Than Death
TTITLE5=Shirley Bassey - (Here Do I Begin) Love Story
TTITLE6=Julie London - Two Sleepy People
TTITLE7=Enigma - Eppur Si Muove
TTITLE8=The King's Singers - You Are The New Day
TTITLE9=The Swingle Singers - Peter Gunn
TTITLE10=Don Mclean - Vincent
TTITLE11=Bette Midler - The Rose
TTITLE12=Anne Murray - You Needed Me
TTITLE13=Atomic Kitten - See Ya
TTITLE14=The Beach Boys - Barbara Ann
TTITLE15=Kc And The Sunshine Band - That's The Way I Like It
TTITLE16=The Mar-Keys - Last Night
EXTD=
EXTT0=
EXTT1=
EXTT2=
EXTT3=
EXTT4=
EXTT5=
EXTT6=
EXTT7=
EXTT8=
EXTT9=
EXTT10=
EXTT11=
EXTT12=
EXTT13=
EXTT14=
EXTT15=
EXTT16=
PLAYORDER=
